<svg width="30" height="32" viewBox="0 0 30 32" fill="none" xmlns="http://www.w3.org/2000/svg">
<path d="M28.3375 0H1.6625C1.22259 0.00348891 0.801623 0.191442 0.49055 0.523253C0.179477 0.855064 0.00327085 1.30409 0 1.77333V30.2267C0.00327085 30.6959 0.179477 31.1449 0.49055 31.4767C0.801623 31.8086 1.22259 31.9965 1.6625 32H16.025V19.6267H12.125V14.7867H16.025V11.2267C16.025 7.09333 18.3875 4.84 21.8625 4.84C23.025 4.84 24.1875 4.84 25.35 5.02667V9.33333H22.9625C21.075 9.33333 20.7125 10.2933 20.7125 11.6933V14.7733H25.2125L24.625 19.6133H20.7125V32H28.3375C28.7774 31.9965 29.1984 31.8086 29.5094 31.4767C29.8205 31.1449 29.9967 30.6959 30 30.2267V1.77333C29.9967 1.30409 29.8205 0.855064 29.5094 0.523253C29.1984 0.191442 28.7774 0.00348891 28.3375 0Z" fill="#AC0E28"/>
</svg>
