<svg width="32" height="34" viewBox="0 0 32 34" fill="none" xmlns="http://www.w3.org/2000/svg">
<path d="M15.998 2C11.649 2 11.107 2.02083 9.405 2.09223C7.696 2.17553 6.54 2.43832 5.52 2.83102C4.45246 3.23068 3.48566 3.85642 2.687 4.66461C1.86974 5.45477 1.2384 6.41404 0.838 7.474C0.442 8.4855 0.177 9.63187 0.093 11.3266C0.016 13.0154 0 13.5519 0 17.8647C0 22.1774 0.021 22.7149 0.093 24.4027C0.177 26.0925 0.442 27.2439 0.838 28.2554C1.24102 29.314 1.87202 30.2728 2.687 31.0648C3.4838 31.8752 4.45113 32.5013 5.52 32.8984C6.54 33.2861 7.701 33.5538 9.405 33.6371C11.108 33.7135 11.649 33.7294 15.998 33.7294C20.347 33.7294 20.889 33.7085 22.591 33.6371C24.295 33.5538 25.456 33.2851 26.476 32.8984C27.5435 32.4987 28.5103 31.873 29.309 31.0648C30.1273 30.2755 30.7588 29.3159 31.158 28.2554C31.549 27.2439 31.819 26.0925 31.903 24.4027C31.98 22.7139 31.996 22.1774 31.996 17.8647C31.996 13.5519 31.975 13.0144 31.903 11.3266C31.819 9.63682 31.548 8.47955 31.158 7.474C30.755 6.41536 30.124 5.45662 29.309 4.66461C28.5131 3.85312 27.5455 3.22687 26.476 2.83102C25.456 2.43832 24.295 2.17553 22.591 2.09223C20.888 2.01587 20.347 2 15.998 2ZM15.998 4.856C20.269 4.856 20.779 4.87683 22.467 4.94823C24.024 5.02062 24.872 5.27845 25.435 5.49662C26.131 5.7514 26.761 6.15692 27.279 6.68364C27.8092 7.19517 28.2166 7.81845 28.471 8.50732C28.691 9.06562 28.951 9.90656 29.024 11.4506C29.096 13.1245 29.117 13.6313 29.117 17.8657C29.117 22.1001 29.096 22.6068 29.018 24.2808C28.934 25.8248 28.674 26.6657 28.455 27.224C28.152 27.9688 27.814 28.4894 27.256 29.0527C26.7362 29.5761 26.1067 29.9797 25.412 30.2347C24.856 30.4529 23.996 30.7107 22.433 30.7831C20.736 30.8545 20.236 30.8754 15.954 30.8754C11.672 30.8754 11.173 30.8545 9.474 30.7772C7.917 30.6939 7.058 30.436 6.495 30.2189C5.735 29.9184 5.214 29.5832 4.656 29.0299C4.093 28.4715 3.735 27.94 3.459 27.2012C3.235 26.6499 2.979 25.797 2.896 24.247C2.839 22.584 2.812 22.0684 2.812 17.8419C2.812 13.6174 2.839 13.1007 2.896 11.4169C2.979 9.86689 3.235 9.01604 3.459 8.46269C3.735 7.70803 4.094 7.19237 4.656 6.63406C5.213 6.0817 5.735 5.7247 6.495 5.44505C7.058 5.22787 7.896 4.97004 9.459 4.89269C11.156 4.8322 11.656 4.81038 15.932 4.81038L15.998 4.856ZM15.998 9.72211C14.9193 9.72172 13.8512 9.93212 12.8546 10.3413C11.8579 10.7504 10.9524 11.3504 10.1897 12.1067C9.42693 12.8631 8.82198 13.7611 8.40938 14.7494C7.99677 15.7377 7.78461 16.797 7.785 17.8667C7.78461 18.9363 7.99677 19.9956 8.40938 20.9839C8.82198 21.9722 9.42693 22.8702 10.1897 23.6266C10.9524 24.383 11.8579 24.9829 12.8546 25.3921C13.8512 25.8012 14.9193 26.0116 15.998 26.0112C17.0767 26.0116 18.1448 25.8012 19.1414 25.3921C20.1381 24.9829 21.0436 24.383 21.8063 23.6266C22.5691 22.8702 23.174 21.9722 23.5866 20.9839C23.9992 19.9956 24.2114 18.9363 24.211 17.8667C24.2114 16.797 23.9992 15.7377 23.5866 14.7494C23.174 13.7611 22.5691 12.8631 21.8063 12.1067C21.0436 11.3504 20.1381 10.7504 19.1414 10.3413C18.1448 9.93212 17.0767 9.72172 15.998 9.72211ZM15.998 23.1552C13.05 23.1552 10.665 20.7901 10.665 17.8667C10.665 14.9432 13.05 12.5781 15.998 12.5781C18.946 12.5781 21.331 14.9432 21.331 17.8667C21.331 20.7901 18.946 23.1552 15.998 23.1552ZM26.462 9.39684C26.4615 9.90226 26.2586 10.3868 25.8981 10.744C25.5375 11.1012 25.0487 11.3018 24.539 11.3018C24.287 11.3018 24.0375 11.2526 23.8046 11.157C23.5718 11.0613 23.3603 10.9212 23.1821 10.7445C23.0039 10.5677 22.8625 10.358 22.7661 10.1271C22.6696 9.89619 22.62 9.64873 22.62 9.39883C22.62 9.14892 22.6696 8.90146 22.7661 8.67058C22.8625 8.43969 23.0039 8.22991 23.1821 8.05319C23.3603 7.87648 23.5718 7.73631 23.8046 7.64067C24.0375 7.54504 24.287 7.49582 24.539 7.49582C25.596 7.49582 26.462 8.34865 26.462 9.39684Z" fill="#AC0E28"/>
</svg>
