<svg width="162" height="61" viewBox="0 0 162 61" fill="none" xmlns="http://www.w3.org/2000/svg">
<path d="M17.9861 60.6103C13.1684 60.4208 9.22562 59.109 6.14346 56.6743C5.55561 56.2094 4.15359 54.8147 3.68368 54.226C2.43354 52.6637 1.58423 51.1423 1.01663 49.455C-0.727846 44.2605 0.170896 37.4439 3.58362 29.9623C6.50676 23.5578 11.0172 17.2061 18.8867 8.40853C20.0451 7.1139 23.4977 3.32776 23.5191 3.32776C23.5281 3.32776 23.3405 3.6523 23.1034 4.04732C21.057 7.45444 19.3065 11.4692 18.3524 14.9432C16.8206 20.5203 17.0052 25.3043 18.8938 29.0153C20.1964 31.5714 22.4298 33.7857 24.9408 35.0099C29.3374 37.152 35.774 37.329 43.6351 35.5281C44.1765 35.4037 70.9941 28.3247 103.231 19.7966C135.466 11.2684 161.847 4.29547 161.851 4.30198C161.86 4.30909 86.9564 36.1813 48.0729 52.7153C41.9145 55.3329 40.2677 55.9939 37.3737 57.0048C29.9729 59.5887 23.344 60.8217 17.9861 60.6103Z" fill="#82041C"/>
</svg>
